<?xml version="1.0" standalone="no"?>
<!DOCTYPE svg PUBLIC "-//W3C//DTD SVG 20010904//EN"
 "http://www.w3.org/TR/2001/REC-SVG-20010904/DTD/svg10.dtd">
<svg version="1.0" xmlns="http://www.w3.org/2000/svg"
 width="2800.000000pt" height="2800.000000pt" viewBox="0 0 2800.000000 2800.000000"
 preserveAspectRatio="xMidYMid meet">
<metadata>
Created by potrace 1.14, written by Peter Selinger 2001-2017
</metadata>
<g transform="translate(0.000000,2800.000000) scale(0.100000,-0.100000)"
fill="#000000" stroke="none">
<path d="M13835 22658 c26 -372 3 -1028 -56 -1568 -184 -1700 -714 -3314
-1541 -4695 -799 -1334 -1869 -2451 -3191 -3333 -1927 -1285 -4338 -2063
-7271 -2347 -143 -14 -261 -25 -263 -25 -6 0 -3 -3257 3 -3262 10 -11 714 262
1174 455 2124 889 4087 1996 5745 3241 1740 1305 3111 2723 4164 4306 538 810
963 1611 1312 2479 54 134 100 245 102 247 2 2 27 -58 57 -134 235 -609 598
-1353 953 -1952 822 -1384 1909 -2681 3238 -3861 2112 -1877 4918 -3525 7974
-4684 l270 -102 3 1630 c1 897 0 1632 -2 1634 -2 3 -96 13 -207 24 -2557 244
-4702 854 -6489 1844 -2299 1274 -3961 3184 -4867 5594 -509 1354 -788 2922
-760 4274 l7 297 -180 0 -179 0 4 -62z"/>
<path d="M13962 13783 c-38 -679 -198 -1268 -512 -1888 -287 -566 -645 -1055
-1150 -1568 -515 -525 -1061 -932 -1810 -1349 -1045 -583 -2443 -1093 -3825
-1398 -126 -28 -233 -54 -238 -59 -6 -6 -7 -17 -4 -25 6 -14 32 -16 189 -16
101 0 3122 -11 6713 -25 8533 -32 8195 -31 8205 -14 14 22 -6 36 -73 48 -144
28 -643 155 -922 236 -1735 498 -3251 1242 -4280 2100 -429 357 -844 795
-1176 1240 -542 728 -874 1493 -989 2279 -24 164 -40 338 -40 436 0 41 -3 105
-7 143 l-6 67 -32 0 -31 0 -12 -207z m1101 -3180 c579 -555 1400 -1341 1825
-1747 425 -407 770 -741 768 -743 -6 -6 -6556 26 -6945 33 l-304 6 139 133
c76 73 884 851 1794 1728 910 878 1658 1596 1663 1597 4 0 481 -453 1060
-1007z"/>
</g>
</svg>
